<svg width="478" height="478" viewBox="0 0 478 478" fill="none" xmlns="http://www.w3.org/2000/svg">
<rect width="478" height="478" rx="50" fill="url(#paint0_radial_1_8)"/>
<path d="M109.105 174.893H141.713C146.635 174.893 150.9 175.412 154.51 176.451C158.119 177.463 161.113 178.939 163.492 180.881C165.871 182.822 167.635 185.188 168.783 187.977C169.959 190.766 170.547 193.924 170.547 197.451C170.547 199.83 170.26 202.1 169.686 204.26C169.111 206.393 168.223 208.361 167.02 210.166C165.844 211.971 164.354 213.584 162.549 215.006C160.744 216.4 158.625 217.562 156.191 218.492L170.137 239H154.223L142.164 220.789H141.795L122.107 220.748V239H109.105V174.893ZM142.041 209.51C144.502 209.51 146.648 209.223 148.48 208.648C150.34 208.074 151.885 207.268 153.115 206.229C154.373 205.189 155.303 203.932 155.904 202.455C156.533 200.951 156.848 199.283 156.848 197.451C156.848 193.869 155.617 191.107 153.156 189.166C150.695 187.197 146.99 186.213 142.041 186.213H122.107V209.51H142.041ZM173.754 214.637C173.754 211.355 174.424 208.225 175.764 205.244C177.104 202.236 179.032 199.584 181.547 197.287C184.063 194.99 187.139 193.158 190.776 191.791C194.44 190.424 198.596 189.74 203.245 189.74C207.866 189.74 212.022 190.438 215.713 191.832C219.432 193.199 222.577 195.086 225.147 197.492C227.745 199.898 229.727 202.729 231.094 205.982C232.489 209.236 233.186 212.723 233.186 216.441C233.186 216.906 233.172 217.412 233.145 217.959C233.145 218.479 233.118 218.957 233.063 219.395H187.289C187.809 220.844 188.643 222.17 189.791 223.373C190.967 224.576 192.43 225.615 194.18 226.49C195.93 227.365 197.954 228.049 200.25 228.541C202.547 229.006 205.09 229.238 207.879 229.238C210.668 229.238 213.444 228.951 216.205 228.377C218.967 227.775 221.606 227.023 224.121 226.121L228.223 235.391C226.637 236.129 225.024 236.785 223.383 237.359C221.77 237.906 220.075 238.371 218.297 238.754C216.547 239.109 214.702 239.383 212.76 239.574C210.846 239.766 208.823 239.861 206.69 239.861C201.248 239.861 196.477 239.205 192.375 237.893C188.274 236.58 184.842 234.789 182.08 232.52C179.319 230.25 177.241 227.584 175.846 224.521C174.452 221.459 173.754 218.164 173.754 214.637ZM220.307 209.92C219.87 208.58 219.186 207.336 218.256 206.188C217.354 205.012 216.219 204 214.852 203.152C213.485 202.277 211.899 201.594 210.094 201.102C208.289 200.609 206.307 200.363 204.147 200.363C201.85 200.363 199.758 200.623 197.871 201.143C195.985 201.662 194.33 202.359 192.909 203.234C191.487 204.109 190.297 205.121 189.34 206.27C188.411 207.418 187.727 208.635 187.289 209.92H220.307ZM107.588 247.602H119.729V251.703C122.955 249.871 126.031 248.586 128.957 247.848C131.91 247.109 134.795 246.74 137.611 246.74C141.303 246.74 144.721 247.287 147.865 248.381C151.01 249.447 153.73 251.047 156.027 253.18C158.324 255.312 160.115 257.979 161.4 261.178C162.713 264.35 163.369 268.027 163.369 272.211V296H151.27V274.18C151.27 271.527 150.887 269.162 150.121 267.084C149.383 264.979 148.303 263.215 146.881 261.793C145.486 260.344 143.777 259.25 141.754 258.512C139.758 257.746 137.516 257.363 135.027 257.363C133.715 257.363 132.361 257.5 130.967 257.773C129.6 258.047 128.246 258.443 126.906 258.963C125.594 259.455 124.322 260.084 123.092 260.85C121.861 261.588 120.74 262.436 119.729 263.393V296H107.588V247.602ZM166.987 271.801C166.987 268.328 167.684 265.074 169.079 262.039C170.5 259.004 172.51 256.352 175.108 254.082C177.733 251.812 180.891 250.021 184.582 248.709C188.301 247.396 192.471 246.74 197.092 246.74C201.713 246.74 205.87 247.396 209.561 248.709C213.28 250.021 216.438 251.812 219.036 254.082C221.661 256.352 223.67 259.004 225.065 262.039C226.487 265.074 227.198 268.328 227.198 271.801C227.198 275.273 226.487 278.527 225.065 281.562C223.67 284.598 221.661 287.25 219.036 289.52C216.438 291.789 213.28 293.58 209.561 294.893C205.87 296.205 201.713 296.861 197.092 296.861C192.471 296.861 188.301 296.205 184.582 294.893C180.891 293.58 177.733 291.789 175.108 289.52C172.51 287.25 170.5 284.598 169.079 281.562C167.684 278.527 166.987 275.273 166.987 271.801ZM179.743 271.801C179.743 273.742 180.125 275.588 180.891 277.338C181.684 279.061 182.819 280.592 184.295 281.932C185.799 283.244 187.618 284.297 189.75 285.09C191.911 285.855 194.358 286.238 197.092 286.238C199.827 286.238 202.26 285.855 204.393 285.09C206.553 284.297 208.371 283.244 209.848 281.932C211.352 280.592 212.487 279.061 213.252 277.338C214.045 275.588 214.442 273.742 214.442 271.801C214.442 269.859 214.045 268.014 213.252 266.264C212.487 264.514 211.352 262.982 209.848 261.67C208.371 260.33 206.553 259.277 204.393 258.512C202.26 257.719 199.827 257.322 197.092 257.322C194.358 257.322 191.911 257.719 189.75 258.512C187.618 259.277 185.799 260.33 184.295 261.67C182.819 262.982 181.684 264.514 180.891 266.264C180.125 268.014 179.743 269.859 179.743 271.801ZM238.362 256.707H226.673V247.602H238.362V232.549H250.503V247.602H262.192V256.707H250.503V296H238.362V256.707ZM262.282 271.637C262.282 268.355 262.952 265.225 264.292 262.244C265.632 259.236 267.56 256.584 270.075 254.287C272.591 251.99 275.667 250.158 279.304 248.791C282.968 247.424 287.124 246.74 291.773 246.74C296.394 246.74 300.55 247.438 304.241 248.832C307.96 250.199 311.105 252.086 313.675 254.492C316.273 256.898 318.255 259.729 319.622 262.982C321.017 266.236 321.714 269.723 321.714 273.441C321.714 273.906 321.7 274.412 321.673 274.959C321.673 275.479 321.646 275.957 321.591 276.395H275.818C276.337 277.844 277.171 279.17 278.32 280.373C279.495 281.576 280.958 282.615 282.708 283.49C284.458 284.365 286.482 285.049 288.779 285.541C291.075 286.006 293.618 286.238 296.407 286.238C299.196 286.238 301.972 285.951 304.734 285.377C307.495 284.775 310.134 284.023 312.65 283.121L316.751 292.391C315.165 293.129 313.552 293.785 311.911 294.359C310.298 294.906 308.603 295.371 306.825 295.754C305.075 296.109 303.23 296.383 301.288 296.574C299.374 296.766 297.351 296.861 295.218 296.861C289.777 296.861 285.005 296.205 280.904 294.893C276.802 293.58 273.37 291.789 270.609 289.52C267.847 287.25 265.769 284.584 264.374 281.521C262.98 278.459 262.282 275.164 262.282 271.637ZM308.835 266.92C308.398 265.58 307.714 264.336 306.784 263.188C305.882 262.012 304.747 261 303.38 260.152C302.013 259.277 300.427 258.594 298.622 258.102C296.818 257.609 294.835 257.363 292.675 257.363C290.378 257.363 288.286 257.623 286.4 258.143C284.513 258.662 282.859 259.359 281.437 260.234C280.015 261.109 278.825 262.121 277.868 263.27C276.939 264.418 276.255 265.635 275.818 266.92H308.835ZM328.326 281.152C331.607 283.121 335.216 284.57 339.154 285.5C343.091 286.43 347.125 286.895 351.254 286.895C354.043 286.895 356.367 286.703 358.226 286.32C360.086 285.938 361.576 285.445 362.697 284.844C363.818 284.242 364.611 283.559 365.076 282.793C365.541 282.027 365.773 281.248 365.773 280.455C365.773 279.307 365.267 278.322 364.255 277.502C363.271 276.682 361.63 276.271 359.334 276.271C358.267 276.271 357.119 276.34 355.888 276.477C354.658 276.613 353.359 276.764 351.992 276.928C350.652 277.064 349.244 277.201 347.767 277.338C346.318 277.475 344.841 277.543 343.337 277.543C340.056 277.543 337.254 277.188 334.929 276.477C332.632 275.766 330.759 274.795 329.31 273.564C327.861 272.334 326.808 270.885 326.152 269.217C325.496 267.521 325.168 265.703 325.168 263.762C325.168 261.301 325.742 259.031 326.89 256.953C328.039 254.875 329.679 253.084 331.812 251.58C333.945 250.049 336.515 248.859 339.523 248.012C342.558 247.164 345.935 246.74 349.654 246.74C351.595 246.74 353.619 246.863 355.724 247.109C357.857 247.328 359.949 247.629 362 248.012C364.05 248.395 366.019 248.846 367.906 249.365C369.793 249.857 371.461 250.391 372.91 250.965L369.095 260.398C366.005 259.25 362.916 258.348 359.826 257.691C356.763 257.008 353.605 256.666 350.351 256.666C348.082 256.666 346.154 256.844 344.568 257.199C343.009 257.527 341.738 257.979 340.754 258.553C339.769 259.1 339.045 259.742 338.58 260.48C338.142 261.191 337.923 261.943 337.923 262.736C337.923 263.311 338.033 263.83 338.252 264.295C338.498 264.76 338.88 265.17 339.4 265.525C339.947 265.854 340.644 266.113 341.492 266.305C342.367 266.469 343.433 266.551 344.691 266.551C345.839 266.551 347.056 266.482 348.341 266.346C349.627 266.209 350.966 266.072 352.361 265.936C353.755 265.771 355.191 265.621 356.668 265.484C358.171 265.348 359.703 265.279 361.261 265.279C364.16 265.279 366.689 265.621 368.849 266.305C371.037 266.988 372.841 267.945 374.263 269.176C375.685 270.406 376.752 271.855 377.462 273.523C378.173 275.191 378.529 277.01 378.529 278.979C378.529 281.521 377.941 283.887 376.765 286.074C375.589 288.262 373.839 290.162 371.515 291.775C369.191 293.361 366.293 294.605 362.82 295.508C359.375 296.41 355.382 296.861 350.843 296.861C348.054 296.861 345.361 296.684 342.763 296.328C340.166 296 337.691 295.549 335.339 294.975C332.988 294.373 330.773 293.676 328.695 292.883C326.644 292.09 324.771 291.242 323.076 290.34L328.326 281.152Z" fill="white"/>
<defs>
<radialGradient id="paint0_radial_1_8" cx="0" cy="0" r="1" gradientUnits="userSpaceOnUse" gradientTransform="translate(239 239) rotate(90) scale(239)">
<stop stop-color="#202496"/>
<stop offset="1" stop-color="#1A24BB"/>
</radialGradient>
</defs>
</svg>
